<?xml version="1.0" encoding="UTF-8"?>
<svg id="Layer_1" data-name="Layer 1" xmlns="http://www.w3.org/2000/svg" viewBox="0 0 538.44 420.45">
  <path d="M292.1,130.44L339.48.04l132.2-.04-175.39,420.45h-121.71S.46,1.1.46,1.1L0,.22C-.06.08.56.01.99.01l131.87.02,47.56,132.07,55.75,142.59,55.93-144.26Z"/>
  <polygon points="488.85 412.76 448.48 412.8 449.91 377.59 419.48 396.62 399.29 361.38 430.03 344.52 399.28 328.33 419.47 292.72 449.93 312.15 448.48 276.64 488.86 276.63 487.78 311.79 517.86 292.74 538.42 328.36 507.26 344.48 538.44 361.37 517.86 396.65 487.77 377.93 488.85 412.76"/>
</svg>