<?xml version="1.0" encoding="UTF-8"?>
<svg id="Layer_1" data-name="Layer 1" xmlns="http://www.w3.org/2000/svg" viewBox="0 0 846.75 283.43">
  <path d="M625.26,234.03c-3,29.53-26.95,48.16-56.35,49.3-12.12.47-23.85-1.37-34.59-6.83-21.45-10.88-31.33-32.28-29.33-55.81,1.69-19.82,13.11-36.66,31.16-44.86,9.74-4.42,19.7-5.99,30.44-5.9,14.8.13,29.17,4.34,40.37,13.99,10.64,9.16,16.97,21.36,18.31,35.39v14.72ZM595.51,226.52c0-16.71-13.55-30.26-30.26-30.26s-30.26,13.55-30.26,30.26,13.55,30.26,30.26,30.26,30.26-13.55,30.26-30.26Z"/>
  <path d="M716.99,272.72c-10.24,8.54-23.82,10.72-37.17,10.67-24.84-.1-47.73-11.46-48.26-37.44l30.52.06c.09,5.58,2.97,9.51,7.57,11.98,8.88,4.35,24.18,2.87,26.48-5.39,1.79-6.41-4.1-11.92-10.19-13.39l-16.42-3.96c-17.87-4.31-36.05-10.48-36.55-31.87-.27-11.29,4.71-21.31,14.72-26.97,6.26-3.53,13.34-5.76,20.69-6.03l11.46-.42c8.58-.31,16.77,1.29,24.63,4.62,12.56,5.33,20.28,16.9,20.86,30.55h-29.68c-.38-4.8-2.96-8.37-7.03-10.69-6.92-2.96-15.08-3.2-21.69.68-2.69,1.58-4.05,5.06-3.93,7.83.34,7.99,11.64,9.88,19.85,11.97l18.13,4.62c6.51,1.66,12.2,5.26,17.17,9.62,12.66,11.12,12.04,32.57-1.15,43.56Z"/>
  <g>
    <path d="M368.97,283.42c-20.1-.26-37.98-10.28-47.05-28.06-8.22-16.11-8.87-35.26-2.44-52.1,7.01-18.38,23.13-30.42,42.51-32.89,15.86-1.58,29.19,1.01,42.31,10.58l.1-178.48,31.27.04.06,125.58v152.46s-23.2.07-23.2.07l-3.84-12.3c-11.09,10.67-24.59,15.31-39.72,15.11ZM405.96,226.55c0-16.71-13.55-30.25-30.25-30.25s-30.25,13.55-30.25,30.25,13.55,30.25,30.25,30.25,30.25-13.55,30.25-30.25Z"/>
    <g>
      <path d="M199.24,116.44l30.12-.06c1.93,6.84,6.99,11.7,13.91,13.46,14.52,3.69,31.29.12,34.86-15.31,1.32-5.72,1.58-11.46,1.02-17.3-10.59,7.71-22.29,10.78-34.78,10.49-20.6-.49-38.4-11.78-46.19-30.92-5.3-13.02-5.79-27.13-1.94-40.52C202.34,15.04,220.61.97,242.64.04l6.55-.04c13.13.66,25.28,5.3,34.74,14.69l3.6-12.1,22.82.02-.08,109.24c-2.25,18.11-12.38,32.86-29.18,39.53-16.79,6.94-40.66,6.64-57.16-1.03-13.64-6.17-23.28-18.15-24.7-33.9ZM281.01,53.83c0-15.71-12.73-28.44-28.44-28.44s-28.44,12.73-28.44,28.44,12.73,28.44,28.44,28.44,28.44-12.73,28.44-28.44Z"/>
      <rect x="341.96" y="2.59" width="31.42" height="107.98"/>
      <g>
        <rect x="138.75" y="2.59" width="31.07" height="107.98"/>
        <polygon points="87.24 2.61 121.09 2.6 76.1 110.55 44.79 110.57 0 2.63 33.97 2.55 46.52 37.57 60.65 73.11 87.24 2.61"/>
      </g>
    </g>
    <g>
      <path d="M302.04,172.49l.03,108.06-23.05.1-3.55-12.31c-11.88,13.85-30.59,17.34-47.42,13.82-11.52-2.41-20.84-9.34-26.6-19.56-4.36-7.73-5.74-16.02-6.64-25.01l-.05-65.06h31.43s.01,59.97.01,59.97c-.04,13.28,7,23.85,20.49,24.1,15.28.28,23.93-11.36,24.07-26.43l.05-57.61,31.21-.06Z"/>
      <path d="M92.2,272.43c-10.26,8.76-23.96,11.04-37.49,10.97-24.81-.14-47.78-11.36-48.26-37.45l30.5.05c.12,5.73,3.15,9.77,7.98,12.19,8.65,3.96,23.51,2.59,25.93-5.14,2.11-6.73-3.87-12.38-10.01-13.85l-16.93-4.06c-18.27-4.38-35.83-10.83-36.09-32.38-.13-11.16,5.11-21.1,15.12-26.57,8.57-4.69,18.36-6.1,28.21-6.23,25.55-.35,46.42,7.82,49.19,35.16h-29.81c-.47-4.65-2.85-8.58-7.06-10.59-6.66-3.17-14.79-3.12-21.29.35-3.04,1.63-4.38,5.04-4.26,8.07.57,13.84,31.24,9.25,51.52,23.34,7.54,5.23,12.16,12.88,12.6,21.98s-2.68,18.03-9.86,24.17Z"/>
      <path d="M184.5,280.53l-26.34-.31c-5.7-.07-11.04-2-16.16-4.16-14.11-7.01-19.65-20.4-19.65-35.93v-41.97s-20.91-.05-20.91-.05l-.05-25.54,15.5-.33c5.52-.12,8.78-4.52,9.82-9.56l2.61-18.11,24.01-.05.03,28.01,29.66.02.04,25.58h-29.75s.12,39.02.12,39.02c.01,4.15,1.63,8.51,4.19,11.51,2.75,3.23,6.91,4.19,10.91,4.92h15.91s.04,26.97.04,26.97Z"/>
    </g>
  </g>
  <polygon points="818.28 273.12 818.78 283.33 795.87 283.33 796.64 263.31 779.5 274.04 768.11 254.19 785.42 244.69 768.12 235.48 779.47 215.42 796.63 226.3 795.87 206.28 818.76 206.29 818.26 215.63 818.13 226.13 835.16 215.42 846.7 235.39 829.1 244.65 846.75 254.24 835.12 274.07 818.35 263.64 818.28 273.12"/>
  <rect x="460.34" y="172.51" width="31.07" height="108.09"/>
</svg>